<?xml version="1.0"?>
<svg xmlns="http://www.w3.org/2000/svg" xmlns:xlink="http://www.w3.org/1999/xlink" version="1.1" id="Capa_1" x="0px" y="0px" width="30px" height="30px" viewBox="0 0 30 30" style="enable-background:new 0 0 30 30;" xml:space="preserve"><g><g>
	<g>
		<path d="M518.604,292.991c-22.195-0.669-38.346-6.053-48.435,14.803c-10.089,20.856-39.685,26.909-57.174,9.419    c-17.49-17.489,1.348-25.561-20.856-36.997c-22.194-11.437,22.195-4.705,30.944,9.419c8.74,14.124,15.473-6.722,5.384-18.159    c-10.088-11.437,39.015,20.856,20.855-8.07c-18.158-28.927,94.182,23.543,16.821-22.195c40.028,0.335,27.912-16.82,18.503-18.503    c-9.419-1.683,34.646-10.088,1.014-20.521c-16.142-6.723,53.817-27.913-11.771-23.877c-19.88,0.134-21.859-22.874-46.082-39.35    c-24.222-16.477-47.765-7.736-64.575,22.194s-46.082,38.011-50.117,16.142c-4.035-21.86,32.293-19.842,27.913-50.117    c-4.37-30.275,22.194-42.716-13.454-57.174c-35.649-14.458-31.948-34.31-56.17-22.874c-24.212,11.437-39.015,3.031-41.367,28.257    c-2.353,25.226-27.187,9.715-13.12,38.011c15.472,31.116,1.31,28.926,2.018,35.314c0,0,2.218,22.204,13.454,29.261    c14.812,9.304,22.539,10.088,23.878,10.768c-2.018,10.423-30.438,21.697-39.35,7.401l-39.015-77.361    c0,0,18.159-78.365-31.614-49.782c-22.874,17.825,34.979,25.895-4.37,52.804c-22.194,11.437-62.443,29.921-71.862,77.686    l-33.277-9.342v-21.525L0,189.793l36.777,30.849v-19.728l30.973,11.045c0,0-2.582,35.286,12.555,54.793    c21.468,27.674,53.674,44.398,53.674,65.924s-25.972,18.159-13.187,39.015c12.785,20.856,40.153-8.749,30.064-51.8l50.012-52.47    c0,0,14.287-12.784,46.531,16.199l29.654,26.852c0,0-3.338,63.237,16.17,84.762c19.508,21.525,43.92,38.709,67.281,49.104    c43.061,19.173,15.816,53.139,37.007,54.487c0,0,37.342-7.066,28.593-47.42c-8.74-40.364-18.494-35.994-31.614-36.998    c-23.878-5.049-25.896-28.257-22.873-46.751c3.031-18.503,57.519,78.03,112.675-8.74c29.901-42.122,43.729-37.666,53.817-40.363    C548.209,315.865,540.807,293.67,518.604,292.991z M148.63,304.763c-1.683-4.035-0.334-2.018-15.807-22.873    c-15.472-20.856-8.97-48.549-8.97-48.549c34.645,21.19,65.14,28.362,65.14,28.362L148.63,304.763z M192.015,220.68l-67.052-14.42    c-9.419-65.255,44.179-77.064,44.179-77.064l35.314,73.66C192.35,207.226,192.015,220.68,192.015,220.68z" data-original="#000000" class="active-path" data-old_color="#000000" fill="#FFFFFF"/>
	</g>
</g></g> </svg>
